<?xml version="1.0" encoding="UTF-8" standalone="no"?>
<!-- Created with Inkscape (http://www.inkscape.org/) -->

<svg
   width="78mm"
   height="78mm"
   viewBox="0 0 78 78"
   version="1.1"
   id="svg1"
   inkscape:version="1.3.2 (091e20e, 2023-11-25)"
   sodipodi:docname="PitchGridLogo-TwoColor-YellowBlack.svg"
   inkscape:export-filename="PitchGridLogo-TwoColor-YellowBlue.png"
   inkscape:export-xdpi="15.630769"
   inkscape:export-ydpi="15.630769"
   xmlns:inkscape="http://www.inkscape.org/namespaces/inkscape"
   xmlns:sodipodi="http://sodipodi.sourceforge.net/DTD/sodipodi-0.dtd"
   xmlns="http://www.w3.org/2000/svg"
   xmlns:svg="http://www.w3.org/2000/svg">
  <sodipodi:namedview
     id="namedview1"
     pagecolor="#ffffff"
     bordercolor="#000000"
     borderopacity="0.25"
     inkscape:showpageshadow="2"
     inkscape:pageopacity="0.0"
     inkscape:pagecheckerboard="0"
     inkscape:deskcolor="#d1d1d1"
     inkscape:document-units="mm"
     inkscape:zoom="0.60718921"
     inkscape:cx="410.90981"
     inkscape:cy="466.08206"
     inkscape:window-width="1936"
     inkscape:window-height="1231"
     inkscape:window-x="326"
     inkscape:window-y="25"
     inkscape:window-maximized="0"
     inkscape:current-layer="layer2" />
  <defs
     id="defs1">
    <inkscape:path-effect
       effect="fillet_chamfer"
       id="path-effect5"
       is_visible="true"
       lpeversion="1"
       nodesatellites_param="F,0,0,1,0,0,0,1 @ F,0,0,1,0,0,0,1 @ F,0,0,1,0,0,0,1 @ F,0,0,1,0,0,0,1 @ F,0,0,1,0,0,0,1 @ F,0,0,1,0,0,0,1"
       radius="0"
       unit="px"
       method="auto"
       mode="F"
       chamfer_steps="1"
       flexible="false"
       use_knot_distance="true"
       apply_no_radius="true"
       apply_with_radius="true"
       only_selected="false"
       hide_knots="false" />
    <inkscape:path-effect
       effect="fillet_chamfer"
       id="path-effect4"
       is_visible="true"
       lpeversion="1"
       nodesatellites_param="F,0,0,1,0,0,0,1 @ F,0,0,1,0,0,0,1 @ F,0,0,1,0,0,0,1 @ F,0,0,1,0,0,0,1 @ F,0,0,1,0,0,0,1 @ F,0,0,1,0,0,0,1"
       radius="0"
       unit="px"
       method="auto"
       mode="F"
       chamfer_steps="1"
       flexible="false"
       use_knot_distance="true"
       apply_no_radius="true"
       apply_with_radius="true"
       only_selected="false"
       hide_knots="false" />
    <inkscape:path-effect
       effect="fillet_chamfer"
       id="path-effect3"
       is_visible="true"
       lpeversion="1"
       nodesatellites_param="F,0,0,1,0,0,0,1 @ F,0,0,1,0,0,0,1 @ F,0,0,1,0,0,0,1 @ F,0,0,1,0,0,0,1 @ F,0,0,1,0,0,0,1 @ F,0,0,1,0,0,0,1"
       radius="0"
       unit="px"
       method="auto"
       mode="F"
       chamfer_steps="1"
       flexible="false"
       use_knot_distance="true"
       apply_no_radius="true"
       apply_with_radius="true"
       only_selected="false"
       hide_knots="false" />
    <inkscape:path-effect
       effect="fillet_chamfer"
       id="path-effect5-7"
       is_visible="true"
       lpeversion="1"
       nodesatellites_param="F,0,0,1,0,0,0,1 @ F,0,0,1,0,0,0,1 @ F,0,0,1,0,0,0,1 @ F,0,0,1,0,0,0,1 @ F,0,0,1,0,0,0,1 @ F,0,0,1,0,0,0,1"
       radius="0"
       unit="px"
       method="auto"
       mode="F"
       chamfer_steps="1"
       flexible="false"
       use_knot_distance="true"
       apply_no_radius="true"
       apply_with_radius="true"
       only_selected="false"
       hide_knots="false" />
    <inkscape:path-effect
       effect="fillet_chamfer"
       id="path-effect5-70"
       is_visible="true"
       lpeversion="1"
       nodesatellites_param="F,0,0,1,0,0,0,1 @ F,0,0,1,0,0,0,1 @ F,0,0,1,0,0,0,1 @ F,0,0,1,0,0,0,1 @ F,0,0,1,0,0,0,1 @ F,0,0,1,0,0,0,1"
       radius="0"
       unit="px"
       method="auto"
       mode="F"
       chamfer_steps="1"
       flexible="false"
       use_knot_distance="true"
       apply_no_radius="true"
       apply_with_radius="true"
       only_selected="false"
       hide_knots="false" />
    <inkscape:path-effect
       effect="fillet_chamfer"
       id="path-effect5-7-3"
       is_visible="true"
       lpeversion="1"
       nodesatellites_param="F,0,0,1,0,0,0,1 @ F,0,0,1,0,0,0,1 @ F,0,0,1,0,0,0,1 @ F,0,0,1,0,0,0,1 @ F,0,0,1,0,0,0,1 @ F,0,0,1,0,0,0,1"
       radius="0"
       unit="px"
       method="auto"
       mode="F"
       chamfer_steps="1"
       flexible="false"
       use_knot_distance="true"
       apply_no_radius="true"
       apply_with_radius="true"
       only_selected="false"
       hide_knots="false" />
    <inkscape:path-effect
       effect="fillet_chamfer"
       id="path-effect5-7-3-6"
       is_visible="true"
       lpeversion="1"
       nodesatellites_param="F,0,0,1,0,0,0,1 @ F,0,0,1,0,0,0,1 @ F,0,0,1,0,0,0,1 @ F,0,0,1,0,0,0,1 @ F,0,0,1,0,0,0,1 @ F,0,0,1,0,0,0,1"
       radius="0"
       unit="px"
       method="auto"
       mode="F"
       chamfer_steps="1"
       flexible="false"
       use_knot_distance="true"
       apply_no_radius="true"
       apply_with_radius="true"
       only_selected="false"
       hide_knots="false" />
    <inkscape:path-effect
       effect="fillet_chamfer"
       id="path-effect5-70-2"
       is_visible="true"
       lpeversion="1"
       nodesatellites_param="F,0,0,1,0,0,0,1 @ F,0,0,1,0,0,0,1 @ F,0,0,1,0,0,0,1 @ F,0,0,1,0,0,0,1 @ F,0,0,1,0,0,0,1 @ F,0,0,1,0,0,0,1"
       radius="0"
       unit="px"
       method="auto"
       mode="F"
       chamfer_steps="1"
       flexible="false"
       use_knot_distance="true"
       apply_no_radius="true"
       apply_with_radius="true"
       only_selected="false"
       hide_knots="false" />
  </defs>
  <g
     inkscape:groupmode="layer"
     id="layer2"
     inkscape:label="BG Rectangle">
    <path
       id="rect5"
       style="fill:#303030;fill-opacity:1;stroke-width:0.287725"
       d="M 0.198954,2e-6 C 0.08867,2e-6 0,0.088673 0,0.198956 v 75.256909 c 0,0.11028 0.08867,0.19895 0.198954,0.19895 h 16.182991 c -0.794618,-0.51705 -1.546191,-1.09236 -2.200899,-1.79524 -1.825851,-1.92085 -1.838924,-4.74362 -1.783354,-7.22488 0.186087,-2.74659 -0.316954,-5.56927 0.47284,-8.25169 0.691633,-2.53496 3.064193,-4.03034 5.241024,-5.194 2.673473,-1.30355 5.087415,-3.39238 8.072892,-3.90777 -0.809813,-1.70633 -0.833619,-3.76029 -0.790133,-5.624983 0.196016,-2.809162 -0.332575,-5.700341 0.492477,-8.441862 0.06203,-0.218365 0.140678,-0.426358 0.226342,-0.629419 -1.899227,-0.285837 -3.660061,-1.409914 -5.291666,-2.372982 -2.229361,-1.452313 -4.831346,-2.43178 -6.659542,-4.429704 -1.759448,-1.860483 -1.821214,-4.58196 -1.764234,-6.98872 0.184631,-2.806576 -0.315492,-5.686967 0.461471,-8.433077 0.699736,-2.5776323 3.123495,-4.079957 5.333525,-5.258594 2.839508,-1.395747 5.391637,-3.673484 8.66252,-3.957381 0.117927,-0.00496 0.235746,-0.00601 0.353467,-0.00362 0.82404,0.016739 1.64014,0.208521 2.408121,0.504362 2.680905,1.278872 5.227785,2.834628 7.759215,4.388363 1.08633,0.5443757 2.0727,1.3260977 2.81895,2.285649 1.07117,-1.3796693 2.68681,-2.357447 4.20801,-3.1719 0.02907,-0.014202 0.0573,-0.03109 0.0863,-0.045475 L 40.492621,0 Z m 44.247947,0 3.03806,5.39812 c 1.77186,-1.063176 3.57086,-2.069447 5.6689,-2.253609 0.93005,-0.037039 1.85628,0.155081 2.72283,0.486275 2.66663,1.262695 5.19585,2.808173 7.70909,4.352706 1.98227,0.9820467 3.66412,2.728138 4.16202,4.930448 0.40284,2.792271 0.21772,5.634106 0.20412,8.447547 0.06999,1.604087 -0.04036,3.303794 -0.66611,4.792989 0.57974,0.08506 1.15057,0.236202 1.69447,0.451135 2.29861,1.106253 4.49341,2.421815 6.67453,3.749125 V 0.198956 C 75.654811,0.088673 75.565621,2e-6 75.455341,2e-6 Z m 31.20791,53.369353 c -0.48459,0.27599 -0.96958,0.54813 -1.44022,0.83096 -2.27626,1.18228 -4.41005,2.87682 -6.99389,3.3047 0.19934,0.39448 0.36142,0.80905 0.47439,1.24489 0.47545,2.7869 0.26793,5.63893 0.25993,8.45478 0.07749,2.19941 -0.07488,4.5876 -1.47588,6.39754 -0.69178,0.8232 -1.53857,1.47301 -2.43912,2.05259 h 11.41532 c 0.11028,0 0.19947,-0.08867 0.19947,-0.19895 z m -35.43453,20.18016 c -0.06464,0.08659 -0.12949,0.17306 -0.19947,0.25683 -0.66974,0.73072 -1.46309,1.31566 -2.29598,1.84847 h 4.9537 c -0.80567,-0.52466 -1.56615,-1.10984 -2.2226,-1.83193 -0.08361,-0.08863 -0.15957,-0.181 -0.23565,-0.27337 z" />
  </g>
  <g
     inkscape:groupmode="layer"
     id="layer3"
     inkscape:label="Hexagon Borders" />
  <g
     inkscape:label="Hexagons"
     inkscape:groupmode="layer"
     id="layer1"
     style="display:inline">
    <path
       id="path1"
       style="fill:#ffab00;fill-opacity:1;stroke-width:0.0741831"
       inkscape:label="path1"
       d="m 27.127543,6.3086594 c -1.32397,-0.00768 -2.652808,0.8741341 -5.745386,2.6360153 -6.185156,3.5237653 -5.746472,2.7744013 -5.787761,9.8934523 -0.04129,7.119057 -0.471344,6.363793 5.672522,9.959084 5.629556,3.294322 5.434391,3.52973 10.109978,0.841292 l -3.289722,-5.846156 a 4.9999999,5 0 0 1 -1.032495,0.112138 4.9999999,5 0 0 1 -5.000212,-5.00021 4.9999999,5 0 0 1 5.000212,-4.999697 4.9999999,5 0 0 1 4.674133,3.295409 l 6.801652,-0.0031 C 38.577594,12.015417 38.400159,12.263623 32.842439,9.0113387 29.770506,7.213693 28.451511,6.3163423 27.127543,6.3086594 Z m 26.298653,0 c -1.100376,-0.00638 -2.266721,0.6381312 -4.383713,1.8551855 l 3.319178,5.8978301 a 4.9999999,5 0 0 1 0.991154,-0.157097 4.9999999,5 0 0 1 5.00021,4.999697 4.9999999,5 0 0 1 -5.00021,5.00021 4.9999999,5 0 0 1 -4.659148,-3.266466 l -6.816637,0.0031 c -0.04626,5.153651 0.139864,4.909399 5.688026,8.156091 6.143863,3.595288 5.275126,3.590427 11.460281,0.06666 6.185157,-3.523766 5.746473,-2.77388 5.787761,-9.892937 0.04129,-7.119051 0.471344,-6.364309 -5.672522,-9.9595973 C 56.068642,7.21369 54.750162,6.3163393 53.426196,6.3086564 Z m -7.378877,3.5599893 c -3.989189,2.2578023 -4.14046,2.6052593 -4.150135,7.3261703 l 6.786149,-0.0031 A 4.9999999,5 0 0 1 49.417139,15.8564 Z m -7.537009,10.7745383 -6.77323,0.0031 a 4.9999999,5 0 0 1 -0.727604,1.311547 l 3.362585,5.975346 c 3.970908,-2.247731 4.128216,-2.599565 4.138249,-7.289993 z m 1.616439,8.600508 c -1.049472,-0.0061 -2.141912,0.570279 -4.073653,1.677417 l 3.38584,6.01617 a 4.9999999,5 0 0 1 0.614432,-0.09767 4.9999999,5 0 0 1 5.000213,5.000211 4.9999999,5 0 0 1 -1.069702,3.053561 l 3.368269,5.985681 c 4.430416,-2.507309 4.124363,-2.569546 4.161503,-8.973096 0.04129,-7.119053 0.471344,-6.363793 -5.672523,-9.959082 -3.071931,-1.797644 -4.39041,-2.695513 -5.714379,-2.703194 z m 26.298136,0 c -1.323966,-0.0077 -2.653324,0.874649 -5.745901,2.636532 -6.185158,3.523765 -5.746473,2.773882 -5.787762,9.892936 -0.04129,7.119053 -0.471344,6.36431 5.672523,9.959599 6.143866,3.595288 5.275642,3.590427 11.460799,0.06666 6.185155,-3.523765 5.74647,-2.7744 5.787759,-9.893453 0.04129,-7.119053 0.470831,-6.363793 -5.673038,-9.959082 -3.071932,-1.797644 -4.390409,-2.695513 -5.71438,-2.703194 z m -33.365405,3.38429 c -4.730091,2.669384 -4.428477,2.607476 -4.466394,9.145178 -0.04129,7.119053 -0.471345,6.36431 5.672522,9.959599 5.622673,3.290294 5.434053,3.529549 10.091889,0.851627 l -3.320726,-5.900415 a 4.9999999,5 0 0 1 -0.983403,0.155546 4.9999999,5 0 0 1 -4.999694,-4.999695 4.9999999,5 0 0 1 1.326534,-3.310392 z m 33.292026,4.211629 a 4.9999999,5 0 0 1 5.000211,5.000211 4.9999999,5 0 0 1 -5.000211,4.999695 4.9999999,5 0 0 1 -4.999695,-4.999695 4.9999999,5 0 0 1 4.999695,-5.000211 z M 27.127543,52.354429 c -1.32397,-0.0077 -2.652808,0.874649 -5.745386,2.636532 -6.185156,3.523765 -5.746472,2.773883 -5.787761,9.892936 -0.04129,7.119053 -0.471344,6.36431 5.672522,9.959599 5.606537,3.280851 5.43305,3.529251 10.049516,0.875915 L 28.01431,69.851036 a 4.9999999,5 0 0 1 -0.959631,0.09974 4.9999999,5 0 0 1 -5.000212,-5.000211 4.9999999,5 0 0 1 5.000212,-5.000212 4.9999999,5 0 0 1 4.725293,3.367753 l 6.749975,-0.0031 c 0.04917,-5.250836 -0.106056,-4.991204 -5.687508,-8.257377 -3.071933,-1.797644 -4.390928,-2.695513 -5.714896,-2.703194 z m 26.298653,0 c -1.077555,-0.0063 -2.212329,0.608399 -4.244702,1.775602 l 3.348632,5.950541 a 4.9999999,5 0 0 1 0.822689,-0.130224 4.9999999,5 0 0 1 5.00021,5.000212 4.9999999,5 0 0 1 -5.00021,5.000211 4.9999999,5 0 0 1 -4.622457,-3.194637 l -6.853845,0.0031 c -0.04396,5.084898 0.164285,4.851559 5.688543,8.084262 6.143863,3.595288 5.275126,3.590427 11.460281,0.06666 6.185157,-3.523765 5.746473,-2.773882 5.787761,-9.892936 0.04129,-7.119053 0.471344,-6.36431 -5.672522,-9.959599 -3.071934,-1.797644 -4.390414,-2.695513 -5.71438,-2.703194 z m -7.238834,3.481441 c -4.1356,2.336888 -4.281217,2.639551 -4.290178,7.47758 l 6.748943,-0.0031 a 4.9999999,5 0 0 1 0.888833,-1.525489 z m -7.677569,10.925432 -6.802685,0.0031 a 4.9999999,5 0 0 1 -0.742074,1.302246 l 3.346566,5.946924 c 4.005975,-2.265854 4.187084,-2.604764 4.198193,-7.25227 z" />
  </g>
  <g
     inkscape:groupmode="layer"
     id="layer4"
     inkscape:label="Circles" />
  <g
     inkscape:groupmode="layer"
     id="layer5"
     inkscape:label="Path" />
</svg>
