<?xml version="1.0" encoding="UTF-8" standalone="no"?>
<svg
   xmlns:dc="http://purl.org/dc/elements/1.1/"
   xmlns:cc="http://creativecommons.org/ns#"
   xmlns:rdf="http://www.w3.org/1999/02/22-rdf-syntax-ns#"
   xmlns:svg="http://www.w3.org/2000/svg"
   xmlns="http://www.w3.org/2000/svg"
   id="SVGRoot"
   version="1.1"
   viewBox="0 0 40 40"
   height="40px"
   width="40px">
  <defs
     id="defs10" />
  <metadata
     id="metadata13">
    <rdf:RDF>
      <cc:Work
         rdf:about="">
        <dc:format>image/svg+xml</dc:format>
        <dc:type
           rdf:resource="http://purl.org/dc/dcmitype/StillImage" />
        <dc:title></dc:title>
      </cc:Work>
    </rdf:RDF>
  </metadata>
  <g
     id="layer1">
    <g
       transform="matrix(3.7795275,0,0,3.7795275,-173.79947,-704.20247)"
       id="layer1-4">
      <g
         transform="matrix(0.09071664,0,0,0.09259772,41.49779,179.00881)"
         id="layer1-2">
        <path
           id="path3727"
           style="fill:#000000;fill-opacity:1;fill-rule:evenodd;stroke:none;stroke-width:0.35277778"
           d="m 131.04182,79.39659 c -9.73663,1.622777 -18.34444,9.031111 -21.44889,18.485555 -1.19944,3.668885 -1.51691,9.983615 -0.67028,13.828885 1.12889,5.36223 4.65667,11.21834 8.89,14.71084 4.86834,4.02166 10.33639,6.13833 16.54532,6.45583 6.38524,0.3175 11.78277,-1.09361 16.86274,-4.51556 3.13976,-2.08138 4.6567,-3.45722 6.73805,-6.06777 5.50334,-6.94973 7.12612,-16.51 4.16278,-24.870836 -1.34055,-3.739445 -2.89278,-6.314722 -5.82083,-9.454444 -6.38528,-6.879167 -15.94556,-10.124722 -25.25889,-8.5725 z" />
        <path
           id="path3729"
           style="fill:#000000;fill-opacity:1;fill-rule:evenodd;stroke:none;stroke-width:0.35277778"
           d="m 59.851274,80.066867 c -5.75028,0.846667 -10.33639,6.985 -10.33639,13.758334 0,6.738059 4.09222,12.311949 9.94833,13.581949 2.18722,0.45861 2.15195,0.45861 -3.84528,0.49388 l -6.10305,0.0353 v 12.17083 12.20612 l 20.03778,-0.10584 20.0025,-0.10583 2.01083,-0.9525 c 6.38528,-2.99861 9.348606,-11.43 6.59694,-18.80306 -1.41111,-3.81 -5.57389,-7.26722 -9.41916,-7.86694 -1.27,-0.17639 -0.56445,-0.28222 3.28083,-0.42333 l 4.93889,-0.17639 V 91.884923 79.890479 l -17.63889,-0.03528 c -9.70139,-0.03528 -18.45028,0.07055 -19.47333,0.211666 z" />
        <path
           id="path3731"
           style="fill:#000000;fill-opacity:1;fill-rule:evenodd;stroke:none;stroke-width:0.35277778"
           d="m 49.514884,166.14465 v 27.16389 h 25.57639 25.576376 v -27.26972 l -0.0353,-27.23445 -0.952496,1.05833 c -0.52917,0.59972 -6.24417,7.05556 -12.7,14.39334 -6.49111,7.3025 -11.81806,13.29972 -11.88861,13.29972 -0.0706,0 -5.78556,-6.42056 -12.7,-14.2875 -6.94973,-7.86695 -12.66473,-14.2875 -12.73528,-14.2875 -0.0706,0 -0.14111,12.20611 -0.14111,27.16389 z" />
        <path
           id="path3733"
           style="fill:#000000;fill-opacity:1;fill-rule:evenodd;stroke:none;stroke-width:0.35277778"
           d="m 120.74071,166.03882 -14.99306,27.09333 15.09889,0.10583 c 8.29028,0.0353 21.9075,0.0353 30.23306,0 l 15.09889,-0.10583 -15.02834,-27.05806 c -8.255,-14.88722 -15.13416,-27.05806 -15.24,-27.09333 -0.10583,0 -6.94972,12.17083 -15.16944,27.05806 z" />
      </g>
    </g>
  </g>
</svg>
